<svg xmlns="http://www.w3.org/2000/svg" viewBox="0 0 400 400" width="400" height="400">
  <rect width="400" height="400" rx="72" fill="#76b900"/>
  <g transform="translate(200 200) scale(0.85) translate(-221.5 -171.5)">
    <path d="M 329.4065,237.027 L 340.0045,266.02 L 318.4805,266.02 L 329.4065,237.027 z M 318.0555,225.738 L 293.6335,287.617 L 310.8795,287.617 L 314.7425,276.684 L 343.6455,276.684 L 347.3015,287.617 L 366.0235,287.617 L 341.4185,225.73 L 318.0555,225.738 z M 269.0235,287.641 L 286.5205,287.641 L 286.5205,225.719 L 269.0205,225.715 L 269.0235,287.641 z M 147.5555,225.715 L 132.9575,274.793 L 118.9735,225.719 L 100.0945,225.715 L 120.0665,287.641 L 145.2735,287.641 L 165.4065,225.715 L 147.5555,225.715 z M 218.2815,239.199 L 225.8015,239.199 C 236.7115,239.199 243.7665,244.098 243.7665,256.809 C 243.7665,269.523 236.7115,274.422 225.8015,274.422 L 218.2815,274.422 L 218.2815,239.199 z M 200.9305,225.715 L 200.9305,287.641 L 229.2975,287.641 C 244.4105,287.641 249.3445,285.129 254.6805,279.492 C 258.4495,275.535 260.8875,266.852 260.8875,257.359 C 260.8875,248.652 258.8245,240.891 255.2275,236.055 C 248.7465,227.406 239.4105,225.715 225.4775,225.715 L 200.9305,225.715 z M 35.188,225.629 L 35.188,287.641 L 52.8325,287.641 L 52.8325,240.555 L 66.5045,240.559 C 71.0315,240.559 74.2585,241.687 76.4385,244.016 C 79.2035,246.961 80.3325,251.715 80.3325,260.41 L 80.3325,287.641 L 97.4305,287.641 L 97.4305,253.379 C 97.4305,228.926 81.8445,225.629 66.5945,225.629 L 35.188,225.629 z M 172.7705,225.715 L 172.7775,287.641 L 190.2665,287.641 L 190.2665,225.715 L 172.7705,225.715 z " fill="#fff"/>
    <path d="M 82.2115,102.414 C 82.2115,102.414 104.7155,69.211 149.6485,65.777 L 149.6485,53.73 C 99.8795,57.727 56.7818,99.879 56.7818,99.879 C 56.7818,99.879 81.1915,170.445 149.6485,176.906 L 149.6485,164.102 C 99.4105,157.781 82.2115,102.414 82.2115,102.414 z M 149.6485,138.637 L 149.6485,150.363 C 111.6805,143.594 101.1415,104.125 101.1415,104.125 C 101.1415,104.125 119.3715,83.93 149.6485,80.656 L 149.6485,93.523 C 149.6255,93.523 149.6095,93.516 149.5905,93.516 C 133.6995,91.609 121.2855,106.453 121.2855,106.453 C 121.2855,106.453 128.2425,131.445 149.6485,138.637 M 149.6485,31.512 L 149.6485,53.73 C 151.1095,53.617 152.5705,53.523 154.0395,53.473 C 210.6215,51.566 247.4885,99.879 247.4885,99.879 C 247.4885,99.879 205.1455,151.367 161.0315,151.367 C 156.9885,151.367 153.2035,150.992 149.6485,150.363 L 149.6485,164.102 C 152.6885,164.488 155.8405,164.715 159.1295,164.715 C 200.1805,164.715 229.8675,143.75 258.6135,118.937 C 263.3795,122.754 282.8915,132.039 286.9025,136.105 C 259.5705,158.988 195.8715,177.434 159.7585,177.434 C 156.2775,177.434 152.9345,177.223 149.6485,176.906 L 149.6485,196.211 L 305.6805,196.211 L 305.6805,31.512 L 149.6485,31.512 z M 149.6485,80.656 L 149.6485,65.777 C 151.0945,65.676 152.5515,65.598 154.0395,65.551 C 194.7275,64.273 221.4225,100.516 221.4225,100.516 C 221.4225,100.516 192.5905,140.559 161.6765,140.559 C 157.2275,140.559 153.2385,139.844 149.6485,138.637 L 149.6485,93.523 C 165.4885,95.437 168.6765,102.434 178.1995,118.309 L 199.3795,100.449 C 199.3795,100.449 183.9185,80.172 157.8555,80.172 C 155.0205,80.172 152.3095,80.371 149.6485,80.656" fill="#fff"/>
  </g>
</svg>
